<?xml version="1.0" encoding="UTF-8"?>
<svg xmlns="http://www.w3.org/2000/svg" style="stroke-dasharray:none; shape-rendering:auto; font-family:'Arial'; text-rendering:auto; fill-opacity:1; color-interpolation:auto; color-rendering:auto; font-size:12; fill:black; stroke:black; image-rendering:auto; stroke-miterlimit:10; stroke-linecap:square; stroke-linejoin:miter; font-style:normal; stroke-width:1; stroke-dashoffset:0; font-weight:normal; stroke-opacity:1;" contentScriptType="text/ecmascript" preserveAspectRatio="xMidYMid meet" zoomAndPan="magnify" version="1.0" contentStyleType="text/css" xml:xlink="http://www.w3.org/1999/xlink" width="1841" height="571"><rect x="0" y="10" width="1841" height="145" ry="0" rx="0" style="stroke:#000000; fill:#82B0B7" /><g componentSequence="1"><text x="-82" y="7" transform="rotate(270)" text-anchor="middle" style="font-weight:bold;font-size:10px;stroke:none; fill:#434343"><tspan dy="14" x="-82">Obra</tspan></text></g><rect x="0" y="154" width="1841" height="145" ry="0" rx="0" style="stroke:#000000; fill:#ADC9AC" /><g componentSequence="2"><text x="-226" y="7" transform="rotate(270)" text-anchor="middle" style="font-weight:bold;font-size:10px;stroke:none; fill:#434343"><tspan dy="14" x="-226">Controladoria</tspan></text></g><rect x="0" y="298" width="1841" height="273" ry="0" rx="0" style="stroke:#000000; fill:#D0DAAE" /><g componentSequence="3"><text x="-434" y="7" transform="rotate(270)" text-anchor="middle" style="font-weight:bold;font-size:10px;stroke:none; fill:#434343"><tspan dy="14" x="-434">Aprovação</tspan></text></g><g sequence="4"><ellipse cx="167" cy="99" rx="17" ry="17" stroke-width="1" style="fill:url(#linearGradient66FF6696FF96B6FFB6_844492926);" stroke="336633" /></g><g sequence="5"><rect x="220" y="220" width="106" height="70" ry="5" rx="5" style="fill:url(#linearGradientF8FBFEEDF5FCDEEDFAD4E7F8E2E5E9_1016203332);" stroke="191970" /></g><g componentSequence="5"><text x="273" y="235" text-anchor="middle" style="font-weight:bold;font-size:10px;stroke:none; fill:#333399"><tspan dy="14" x="273">Inclusão da</tspan><tspan dy="14" x="273">Medição</tspan></text></g><g sequence="9"><ellipse cx="437" cy="337" rx="17" ry="17" stroke-width="3" style="fill:url(#linearGradientFF6666FF9696FFB6B6_950901518);" stroke="993333" /></g><g sequence="14"><polygon points=" 370 230 400 200 430 230 400 260 370 230" style="fill:url(#linearGradientFAFBFCFFFFCC_2108621439);" stroke="000000" /></g><g componentSequence="14"><text x="400" y="263" text-anchor="middle" style="font-weight:bold;font-size:10px;stroke:none; fill:#333399"><tspan dy="14" x="400">Decisão</tspan></text></g><g sequence="17"><rect x="460" y="49" width="106" height="70" ry="5" rx="5" style="fill:url(#linearGradientF8FBFEEDF5FCDEEDFAD4E7F8E2E5E9_1625607092);" stroke="191970" /></g><g componentSequence="17"><text x="513" y="64" text-anchor="middle" style="font-weight:bold;font-size:10px;stroke:none; fill:#333399"><tspan dy="14" x="513">Solicitação da</tspan><tspan dy="14" x="513">Aprovação</tspan></text></g><g sequence="19"><polygon points=" 580 214 610 184 640 214 610 244 580 214" style="fill:url(#linearGradientFAFBFCFFFFCC_1276657604);" stroke="000000" /></g><g componentSequence="19"><text x="610" y="247" text-anchor="middle" style="font-weight:bold;font-size:10px;stroke:none; fill:#333399"><tspan dy="14" x="610">Decisão</tspan></text></g><g sequence="22"><rect x="680" y="186" width="106" height="84" ry="5" rx="5" style="fill:url(#linearGradientF8FBFEEDF5FCDEEDFAD4E7F8E2E5E9_414820514);" stroke="191970" /></g><g componentSequence="22"><text x="733" y="201" text-anchor="middle" style="font-weight:bold;font-size:10px;stroke:none; fill:#333399"><tspan dy="14" x="733">Recebimento do</tspan><tspan dy="14" x="733">Boletim</tspan><tspan dy="14" x="733">Assinado</tspan></text></g><g sequence="24"><polygon points=" 860 214 890 184 920 214 890 244 860 214" style="fill:url(#linearGradientFAFBFCFFFFCC_494992688);" stroke="000000" /></g><g componentSequence="24"><text x="890" y="247" text-anchor="middle" style="font-weight:bold;font-size:10px;stroke:none; fill:#333399"><tspan dy="14" x="890">Decisão</tspan></text></g><g sequence="26"><rect x="980" y="190" width="106" height="70" ry="5" rx="5" style="fill:url(#linearGradientF8FBFEEDF5FCDEEDFAD4E7F8E2E5E9_1535061087);" stroke="191970" /></g><g componentSequence="26"><text x="1033" y="205" text-anchor="middle" style="font-weight:bold;font-size:10px;stroke:none; fill:#333399"><tspan dy="14" x="1033">Análise da</tspan><tspan dy="14" x="1033">Documentação</tspan></text></g><g sequence="28"><polygon points=" 1000 350 1030 320 1060 350 1030 380 1000 350" style="fill:url(#linearGradientFAFBFCFFFFCC_1444208363);" stroke="000000" /></g><g componentSequence="28"><text x="1030" y="383" text-anchor="middle" style="font-weight:bold;font-size:10px;stroke:none; fill:#333399"><tspan dy="14" x="1030">Decisão</tspan></text></g><g sequence="30"><rect x="980" y="437" width="106" height="56" ry="5" rx="5" style="fill:url(#linearGradientF8FBFEEDF5FCDEEDFAD4E7F8E2E5E9_62750771);" stroke="191970" /></g><g componentSequence="30"><text x="1033" y="454" text-anchor="middle" style="font-weight:bold;font-size:10px;stroke:none; fill:#333399"><tspan dy="14" x="1033">Engenheiro</tspan></text></g><g sequence="34"><polygon points=" 1150 450 1180 420 1210 450 1180 480 1150 450" style="fill:url(#linearGradientFAFBFCFFFFCC_432964617);" stroke="000000" /></g><g componentSequence="34"><text x="1180" y="483" text-anchor="middle" style="font-weight:bold;font-size:10px;stroke:none; fill:#333399"><tspan dy="14" x="1180">Decisão</tspan></text></g><g sequence="37"><rect x="1260" y="430" width="106" height="56" ry="5" rx="5" style="fill:url(#linearGradientF8FBFEEDF5FCDEEDFAD4E7F8E2E5E9_997285563);" stroke="191970" /></g><g componentSequence="37"><text x="1313" y="447" text-anchor="middle" style="font-weight:bold;font-size:10px;stroke:none; fill:#333399"><tspan dy="14" x="1313">Coordenador</tspan></text></g><g sequence="39"><polygon points=" 1400 440 1430 410 1460 440 1430 470 1400 440" style="fill:url(#linearGradientFAFBFCFFFFCC_1273117880);" stroke="000000" /></g><g componentSequence="39"><text x="1430" y="473" text-anchor="middle" style="font-weight:bold;font-size:10px;stroke:none; fill:#333399"><tspan dy="14" x="1430">Decisão</tspan></text></g><g sequence="40"><rect x="1510" y="420" width="106" height="56" ry="5" rx="5" style="fill:url(#linearGradientF8FBFEEDF5FCDEEDFAD4E7F8E2E5E9_607228399);" stroke="191970" /></g><g componentSequence="40"><text x="1563" y="437" text-anchor="middle" style="font-weight:bold;font-size:10px;stroke:none; fill:#333399"><tspan dy="14" x="1563">Diretor</tspan></text></g><g sequence="41"><polygon points=" 1680 440 1710 410 1740 440 1710 470 1680 440" style="fill:url(#linearGradientFAFBFCFFFFCC_1228060588);" stroke="000000" /></g><g componentSequence="41"><text x="1710" y="473" text-anchor="middle" style="font-weight:bold;font-size:10px;stroke:none; fill:#333399"><tspan dy="14" x="1710">Decisão</tspan></text></g><g sequence="45"><ellipse cx="1487" cy="527" rx="17" ry="17" stroke-width="3" style="fill:url(#linearGradientFF6666FF9696FFB6B6_2013768887);" stroke="993333" /></g><g sequence="47"><ellipse cx="1777" cy="527" rx="17" ry="17" stroke-width="3" style="fill:url(#linearGradientFF6666FF9696FFB6B6_576346355);" stroke="993333" /></g><g sequence="49"><ellipse cx="1237" cy="537" rx="17" ry="17" stroke-width="3" style="fill:url(#linearGradientFF6666FF9696FFB6B6_172755902);" stroke="993333" /></g><g componentSequence="6"><text x="177" y="202" style="font-size:10px;font-weight:none;stroke:none; fill:#333399" text-anchor="left" /></g><g componentSequence="15"><text x="358" y="248" style="font-size:10px;font-weight:none;stroke:none; fill:#333399" text-anchor="left" /></g><g componentSequence="16"><text x="353" y="99" style="font-size:10px;font-weight:none;stroke:none; fill:#333399" text-anchor="left" /></g><g componentSequence="18"><text x="492" y="206" style="font-size:10px;font-weight:none;stroke:none; fill:#333399" text-anchor="left" /></g><g componentSequence="20"><text x="522" y="207" style="font-size:10px;font-weight:none;stroke:none; fill:#333399" text-anchor="left" /></g><g componentSequence="21"><text x="408" y="323" style="font-size:10px;font-weight:none;stroke:none; fill:#333399" text-anchor="left" /></g><g componentSequence="23"><text x="670" y="228" style="font-size:10px;font-weight:none;stroke:none; fill:#333399" text-anchor="left" /></g><g componentSequence="25"><text x="833" y="228" style="font-size:10px;font-weight:none;stroke:none; fill:#333399" text-anchor="left" /></g><g componentSequence="27"><text x="960" y="227" style="font-size:10px;font-weight:none;stroke:none; fill:#333399" text-anchor="left" /></g><g componentSequence="29"><text x="1039" y="290" style="font-size:10px;font-weight:none;stroke:none; fill:#333399" text-anchor="left" /></g><g componentSequence="31"><text x="1042" y="422" style="font-size:10px;font-weight:none;stroke:none; fill:#333399" text-anchor="left" /></g><g componentSequence="32"><text x="898" y="409" style="font-size:10px;font-weight:none;stroke:none; fill:#333399" text-anchor="left" /></g><g componentSequence="33"><text x="707" y="464" style="font-size:10px;font-weight:none;stroke:none; fill:#333399" text-anchor="left" /></g><g componentSequence="35"><text x="1128" y="464" style="font-size:10px;font-weight:none;stroke:none; fill:#333399" text-anchor="left" /></g><g componentSequence="36"><text x="1190" y="292" style="font-size:10px;font-weight:none;stroke:none; fill:#333399" text-anchor="left" /></g><g componentSequence="38"><text x="1245" y="461" style="font-size:10px;font-weight:none;stroke:none; fill:#333399" text-anchor="left" /></g><g componentSequence="42"><text x="1393" y="456" style="font-size:10px;font-weight:none;stroke:none; fill:#333399" text-anchor="left" /></g><g componentSequence="43"><text x="1495" y="451" style="font-size:10px;font-weight:none;stroke:none; fill:#333399" text-anchor="left" /></g><g componentSequence="44"><text x="1658" y="451" style="font-size:10px;font-weight:none;stroke:none; fill:#333399" text-anchor="left" /></g><g componentSequence="46"><text x="1446" y="526" style="font-size:10px;font-weight:none;stroke:none; fill:#333399" text-anchor="left" /></g><g componentSequence="48"><text x="1731" y="526" style="font-size:10px;font-weight:none;stroke:none; fill:#333399" text-anchor="left" /></g><g componentSequence="50"><text x="1196" y="536" style="font-size:10px;font-weight:none;stroke:none; fill:#333399" text-anchor="left" /></g><g componentSequence="51"><text x="1037" y="120" style="font-size:10px;font-weight:none;stroke:none; fill:#333399" text-anchor="left" /></g><g componentSequence="52"><text x="660" y="362" style="font-size:10px;font-weight:none;stroke:none; fill:#333399" text-anchor="left" /></g><g componentSequence="53"><text x="758" y="136" style="font-size:10px;font-weight:none;stroke:none; fill:#333399" text-anchor="left" /></g><g componentSequence="54"><text x="1489" y="225" style="font-size:10px;font-weight:none;stroke:none; fill:#333399" text-anchor="left" /></g><g componentSequence="55"><text x="1343" y="257" style="font-size:10px;font-weight:none;stroke:none; fill:#333399" text-anchor="left" /></g><g componentSequence="56"><text x="1310" y="84" style="font-size:10px;font-weight:none;stroke:none; fill:#333399" text-anchor="left" /></g><g componentSequence="57"><text x="1164" y="104" style="font-size:10px;font-weight:none;stroke:none; fill:#333399" text-anchor="left" /></g><g componentSequence="58"><text x="851" y="170" style="font-size:10px;font-weight:none;stroke:none; fill:#333399" text-anchor="left" /></g><path style="fill:none; stroke:#000000;stroke-width:1" d="M166.0 117.0 L167.0 235.0 L218.0 244.0" /><polygon style="fill:#000000; stroke:#000000;" points=" 209 237 218 244 207 247 210 243" /><path style="fill:none; stroke:#000000;stroke-width:1" d="M400.0 198.0 L400.0 99.0 L185.0 98.0" /><polygon style="fill:#000000; stroke:#000000;" points=" 195 103 185 98 195 93 193 98" /><path style="fill:none; stroke:#000000;stroke-width:1" d="M326.0 250.0 L368.0 246.0" /><polygon style="fill:#000000; stroke:#000000;" points=" 358 242 368 246 359 252 360 247" /><path style="fill:none; stroke:#000000;stroke-width:1" d="M398.0 288.0 L398.0 336.0 L420.0 337.0" /><polygon style="fill:#000000; stroke:#000000;" points=" 410 332 420 337 410 342 412 337" /><path style="fill:none; stroke:#000000;stroke-width:1" d="M430.0 242.0 L482.0 243.0 L482.0 178.0 L482.0 134.0 L489.0 120.0" /><polygon style="fill:#000000; stroke:#000000;" points=" 480 127 489 120 489 131 485 127" /><path style="fill:none; stroke:#000000;stroke-width:1" d="M512.0 120.0 L512.0 228.0 L578.0 228.0" /><polygon style="fill:#000000; stroke:#000000;" points=" 568 223 578 228 568 233 570 228" /><path style="fill:none; stroke:#000000;stroke-width:1" d="M1186.0 418.0 L1192.0 392.0 L1192.0 120.0 L624.0 120.0 L566.0 101.0" /><polygon style="fill:#000000; stroke:#000000;" points=" 574 109 566 101 577 99 574 103" /><path style="fill:none; stroke:#000000;stroke-width:1" d="M998.0 362.0 L547.0 362.0 L546.0 128.0 L540.0 120.0" /><polygon style="fill:#000000; stroke:#000000;" points=" 542 131 540 120 550 125 545 126" /><path style="fill:none; stroke:#000000;stroke-width:1" d="M889.0 182.0 L888.0 136.0 L609.0 136.0 L566.0 113.0" /><polygon style="fill:#000000; stroke:#000000;" points=" 572 122 566 113 577 113 573 117" /><path style="fill:none; stroke:#000000;stroke-width:1" d="M1709.0 408.0 L1708.0 84.0 L566.0 84.0" /><polygon style="fill:#000000; stroke:#000000;" points=" 576 89 566 84 576 79 574 84" /><path style="fill:none; stroke:#000000;stroke-width:1" d="M1434.0 408.0 L1438.0 390.0 L1438.0 104.0 L608.0 104.0 L566.0 94.0" /><polygon style="fill:#000000; stroke:#000000;" points=" 575 101 566 94 577 91 574 96" /><path style="fill:none; stroke:#000000;stroke-width:1" d="M640.0 228.0 L678.0 228.0" /><polygon style="fill:#000000; stroke:#000000;" points=" 668 223 678 228 668 233 670 228" /><path style="fill:none; stroke:#000000;stroke-width:1" d="M609.0 272.0 L608.0 464.0 L978.0 464.0" /><polygon style="fill:#000000; stroke:#000000;" points=" 968 459 978 464 968 469 970 464" /><path style="fill:none; stroke:#000000;stroke-width:1" d="M640.0 189.0 L656.0 170.0 L1032.0 170.0 L1032.0 188.0" /><polygon style="fill:#000000; stroke:#000000;" points=" 1037 178 1032 188 1027 178 1032 180" /><path style="fill:none; stroke:#000000;stroke-width:1" d="M786.0 228.0 L858.0 228.0" /><polygon style="fill:#000000; stroke:#000000;" points=" 848 223 858 228 848 233 850 228" /><path style="fill:none; stroke:#000000;stroke-width:1" d="M920.0 226.0 L978.0 225.0" /><polygon style="fill:#000000; stroke:#000000;" points=" 968 220 978 225 968 230 970 225" /><path style="fill:none; stroke:#000000;stroke-width:1" d="M889.0 272.0 L888.0 454.0 L958.0 454.0 L978.0 456.0" /><polygon style="fill:#000000; stroke:#000000;" points=" 969 450 978 456 968 460 970 455" /><path style="fill:none; stroke:#000000;stroke-width:1" d="M1028.0 260.0 L1029.0 260.0 L1029.0 318.0" /><polygon style="fill:#000000; stroke:#000000;" points=" 1034 308 1029 318 1024 308 1029 310" /><path style="fill:none; stroke:#000000;stroke-width:1" d="M1180.0 418.0 L1180.0 284.0 L1095.0 284.0 L1069.0 260.0" /><polygon style="fill:#000000; stroke:#000000;" points=" 1073 270 1069 260 1080 263 1075 265" /><path style="fill:none; stroke:#000000;stroke-width:1" d="M1689.0 408.0 L1690.0 409.0 L1688.0 318.0 L1688.0 225.0 L1086.0 224.0" /><polygon style="fill:#000000; stroke:#000000;" points=" 1096 229 1086 224 1096 219 1094 224" /><path style="fill:none; stroke:#000000;stroke-width:1" d="M1429.0 408.0 L1430.0 257.0 L1120.0 257.0 L1086.0 244.0" /><polygon style="fill:#000000; stroke:#000000;" points=" 1094 252 1086 244 1097 243 1093 247" /><path style="fill:none; stroke:#000000;stroke-width:1" d="M1032.0 408.0 L1032.0 408.0 L1032.0 436.0" /><polygon style="fill:#000000; stroke:#000000;" points=" 1037 426 1032 436 1027 426 1032 428" /><path style="fill:none; stroke:#000000;stroke-width:1" d="M1086.0 464.0 L1148.0 464.0" /><polygon style="fill:#000000; stroke:#000000;" points=" 1138 459 1148 464 1138 469 1140 464" /><path style="fill:none; stroke:#000000;stroke-width:1" d="M1210.0 461.0 L1258.0 460.0" /><polygon style="fill:#000000; stroke:#000000;" points=" 1248 455 1258 460 1248 465 1250 460" /><path style="fill:none; stroke:#000000;stroke-width:1" d="M1180.0 508.0 L1180.0 536.0 L1220.0 537.0" /><polygon style="fill:#000000; stroke:#000000;" points=" 1210 532 1220 537 1210 542 1212 537" /><path style="fill:none; stroke:#000000;stroke-width:1" d="M1366.0 456.0 L1398.0 454.0" /><polygon style="fill:#000000; stroke:#000000;" points=" 1388 450 1398 454 1388 460 1390 454" /><path style="fill:none; stroke:#000000;stroke-width:1" d="M1460.0 452.0 L1508.0 449.0" /><polygon style="fill:#000000; stroke:#000000;" points=" 1498 445 1508 449 1498 455 1500 449" /><path style="fill:none; stroke:#000000;stroke-width:1" d="M1429.0 498.0 L1430.0 526.0 L1469.0 526.0" /><polygon style="fill:#000000; stroke:#000000;" points=" 1459 521 1469 526 1459 531 1461 526" /><path style="fill:none; stroke:#000000;stroke-width:1" d="M1616.0 449.0 L1678.0 452.0" /><polygon style="fill:#000000; stroke:#000000;" points=" 1668 447 1678 452 1668 457 1670 452" /><path style="fill:none; stroke:#000000;stroke-width:1" d="M1709.0 498.0 L1710.0 526.0 L1760.0 526.0" /><polygon style="fill:#000000; stroke:#000000;" points=" 1750 521 1760 526 1750 531 1752 526" /><defs><linearGradient xmlns:xlink="http://www.w3.org/1999/xlink" xlink:href="#linearGradient66FF6696FF96B6FFB6" id="linearGradient66FF6696FF96B6FFB6_844492926" x1="0" y1="82.0" x2="0" y2="117.0" gradientUnits="userSpaceOnUse" xlink:type="simple" xlink:actuate="onLoad" xlink:show="other" /><linearGradient id="linearGradient66FF6696FF96B6FFB6"><stop style="stop-color:#66FF66;stop-opacity:1;" offset="0.0" id="stop66FF66" /><stop style="stop-color:#96FF96;stop-opacity:1;" offset="0.5" id="stop96FF96" /><stop style="stop-color:#B6FFB6;stop-opacity:1;" offset="1.0" id="stopB6FFB6" /></linearGradient><linearGradient xmlns:xlink="http://www.w3.org/1999/xlink" xlink:href="#linearGradientF8FBFEEDF5FCDEEDFAD4E7F8E2E5E9" id="linearGradientF8FBFEEDF5FCDEEDFAD4E7F8E2E5E9_1016203332" x1="0" y1="220.0" x2="0" y2="326.0" gradientUnits="userSpaceOnUse" xlink:type="simple" xlink:actuate="onLoad" xlink:show="other" /><linearGradient id="linearGradientF8FBFEEDF5FCDEEDFAD4E7F8E2E5E9"><stop style="stop-color:#F8FBFE;stop-opacity:1;" offset="0.0" id="stopF8FBFE" /><stop style="stop-color:#EDF5FC;stop-opacity:1;" offset="0.25" id="stopEDF5FC" /><stop style="stop-color:#DEEDFA;stop-opacity:1;" offset="0.5" id="stopDEEDFA" /><stop style="stop-color:#D4E7F8;stop-opacity:1;" offset="0.75" id="stopD4E7F8" /><stop style="stop-color:#E2E5E9;stop-opacity:1;" offset="1.0" id="stopE2E5E9" /></linearGradient><linearGradient xmlns:xlink="http://www.w3.org/1999/xlink" xlink:href="#linearGradientFF6666FF9696FFB6B6" id="linearGradientFF6666FF9696FFB6B6_950901518" x1="0" y1="320.0" x2="0" y2="355.0" gradientUnits="userSpaceOnUse" xlink:type="simple" xlink:actuate="onLoad" xlink:show="other" /><linearGradient id="linearGradientFF6666FF9696FFB6B6"><stop style="stop-color:#FF6666;stop-opacity:1;" offset="0.0" id="stopFF6666" /><stop style="stop-color:#FF9696;stop-opacity:1;" offset="0.5" id="stopFF9696" /><stop style="stop-color:#FFB6B6;stop-opacity:1;" offset="1.0" id="stopFFB6B6" /></linearGradient><linearGradient xmlns:xlink="http://www.w3.org/1999/xlink" xlink:href="#linearGradientFAFBFCFFFFCC" id="linearGradientFAFBFCFFFFCC_2108621439" x1="0" y1="200.0" x2="0" y2="260.0" gradientUnits="userSpaceOnUse" xlink:type="simple" xlink:actuate="onLoad" xlink:show="other" /><linearGradient id="linearGradientFAFBFCFFFFCC"><stop style="stop-color:#FAFBFC;stop-opacity:1;" offset="0.0" id="stopFAFBFC" /><stop style="stop-color:#FFFFCC;stop-opacity:1;" offset="1.0" id="stopFFFFCC" /></linearGradient><linearGradient xmlns:xlink="http://www.w3.org/1999/xlink" xlink:href="#linearGradientF8FBFEEDF5FCDEEDFAD4E7F8E2E5E9" id="linearGradientF8FBFEEDF5FCDEEDFAD4E7F8E2E5E9_1625607092" x1="0" y1="49.0" x2="0" y2="155.0" gradientUnits="userSpaceOnUse" xlink:type="simple" xlink:actuate="onLoad" xlink:show="other" /><linearGradient xmlns:xlink="http://www.w3.org/1999/xlink" xlink:href="#linearGradientFAFBFCFFFFCC" id="linearGradientFAFBFCFFFFCC_1276657604" x1="0" y1="184.0" x2="0" y2="244.0" gradientUnits="userSpaceOnUse" xlink:type="simple" xlink:actuate="onLoad" xlink:show="other" /><linearGradient xmlns:xlink="http://www.w3.org/1999/xlink" xlink:href="#linearGradientF8FBFEEDF5FCDEEDFAD4E7F8E2E5E9" id="linearGradientF8FBFEEDF5FCDEEDFAD4E7F8E2E5E9_414820514" x1="0" y1="186.0" x2="0" y2="292.0" gradientUnits="userSpaceOnUse" xlink:type="simple" xlink:actuate="onLoad" xlink:show="other" /><linearGradient xmlns:xlink="http://www.w3.org/1999/xlink" xlink:href="#linearGradientFAFBFCFFFFCC" id="linearGradientFAFBFCFFFFCC_494992688" x1="0" y1="184.0" x2="0" y2="244.0" gradientUnits="userSpaceOnUse" xlink:type="simple" xlink:actuate="onLoad" xlink:show="other" /><linearGradient xmlns:xlink="http://www.w3.org/1999/xlink" xlink:href="#linearGradientF8FBFEEDF5FCDEEDFAD4E7F8E2E5E9" id="linearGradientF8FBFEEDF5FCDEEDFAD4E7F8E2E5E9_1535061087" x1="0" y1="190.0" x2="0" y2="296.0" gradientUnits="userSpaceOnUse" xlink:type="simple" xlink:actuate="onLoad" xlink:show="other" /><linearGradient xmlns:xlink="http://www.w3.org/1999/xlink" xlink:href="#linearGradientFAFBFCFFFFCC" id="linearGradientFAFBFCFFFFCC_1444208363" x1="0" y1="320.0" x2="0" y2="380.0" gradientUnits="userSpaceOnUse" xlink:type="simple" xlink:actuate="onLoad" xlink:show="other" /><linearGradient xmlns:xlink="http://www.w3.org/1999/xlink" xlink:href="#linearGradientF8FBFEEDF5FCDEEDFAD4E7F8E2E5E9" id="linearGradientF8FBFEEDF5FCDEEDFAD4E7F8E2E5E9_62750771" x1="0" y1="437.0" x2="0" y2="543.0" gradientUnits="userSpaceOnUse" xlink:type="simple" xlink:actuate="onLoad" xlink:show="other" /><linearGradient xmlns:xlink="http://www.w3.org/1999/xlink" xlink:href="#linearGradientFAFBFCFFFFCC" id="linearGradientFAFBFCFFFFCC_432964617" x1="0" y1="420.0" x2="0" y2="480.0" gradientUnits="userSpaceOnUse" xlink:type="simple" xlink:actuate="onLoad" xlink:show="other" /><linearGradient xmlns:xlink="http://www.w3.org/1999/xlink" xlink:href="#linearGradientF8FBFEEDF5FCDEEDFAD4E7F8E2E5E9" id="linearGradientF8FBFEEDF5FCDEEDFAD4E7F8E2E5E9_997285563" x1="0" y1="430.0" x2="0" y2="536.0" gradientUnits="userSpaceOnUse" xlink:type="simple" xlink:actuate="onLoad" xlink:show="other" /><linearGradient xmlns:xlink="http://www.w3.org/1999/xlink" xlink:href="#linearGradientFAFBFCFFFFCC" id="linearGradientFAFBFCFFFFCC_1273117880" x1="0" y1="410.0" x2="0" y2="470.0" gradientUnits="userSpaceOnUse" xlink:type="simple" xlink:actuate="onLoad" xlink:show="other" /><linearGradient xmlns:xlink="http://www.w3.org/1999/xlink" xlink:href="#linearGradientF8FBFEEDF5FCDEEDFAD4E7F8E2E5E9" id="linearGradientF8FBFEEDF5FCDEEDFAD4E7F8E2E5E9_607228399" x1="0" y1="420.0" x2="0" y2="526.0" gradientUnits="userSpaceOnUse" xlink:type="simple" xlink:actuate="onLoad" xlink:show="other" /><linearGradient xmlns:xlink="http://www.w3.org/1999/xlink" xlink:href="#linearGradientFAFBFCFFFFCC" id="linearGradientFAFBFCFFFFCC_1228060588" x1="0" y1="410.0" x2="0" y2="470.0" gradientUnits="userSpaceOnUse" xlink:type="simple" xlink:actuate="onLoad" xlink:show="other" /><linearGradient xmlns:xlink="http://www.w3.org/1999/xlink" xlink:href="#linearGradientFF6666FF9696FFB6B6" id="linearGradientFF6666FF9696FFB6B6_2013768887" x1="0" y1="510.0" x2="0" y2="545.0" gradientUnits="userSpaceOnUse" xlink:type="simple" xlink:actuate="onLoad" xlink:show="other" /><linearGradient xmlns:xlink="http://www.w3.org/1999/xlink" xlink:href="#linearGradientFF6666FF9696FFB6B6" id="linearGradientFF6666FF9696FFB6B6_576346355" x1="0" y1="510.0" x2="0" y2="545.0" gradientUnits="userSpaceOnUse" xlink:type="simple" xlink:actuate="onLoad" xlink:show="other" /><linearGradient xmlns:xlink="http://www.w3.org/1999/xlink" xlink:href="#linearGradientFF6666FF9696FFB6B6" id="linearGradientFF6666FF9696FFB6B6_172755902" x1="0" y1="520.0" x2="0" y2="555.0" gradientUnits="userSpaceOnUse" xlink:type="simple" xlink:actuate="onLoad" xlink:show="other" /></defs></svg>
